<svg xmlns="http://www.w3.org/2000/svg" width="356.45" height="73.72" viewBox="0 0 356.45 73.72"><defs><style>.cls-1{fill:none;}.cls-2{fill:#fff;}</style></defs><title>Asset 2</title><g id="Layer_2" data-name="Layer 2"><g id="Layer_1-2" data-name="Layer 1"><path class="cls-1" d="M109.71,23.57,102.9,43h13.83c-2.27-6.52-4.51-13-6.76-19.4Z"/><path class="cls-1" d="M34.65,36.49c2.16,1.72,4.4,3.36,6.67,4.92l-2.53-7.95-3.16,0Z"/><path class="cls-1" d="M153.75,34.23c-5.23-3.34-11.9.11-12.8,6.6-.11.73,0,.92.77.91,2.54,0,5.08,0,7.62,0H157c.42,0,1,.17.84-.64C157.34,38.28,156.26,35.83,153.75,34.23Z"/><path class="cls-1" d="M254.74,18.19c-4.57-.43-9.15-.1-13.73-.23-1,0-.81.56-.81,1.12V38.32c0,6.46,0,12.91,0,19.37,0,.78.16,1.07,1,1.06,4-.06,8.08,0,12.12-.08,7.46-.17,13.18-4.07,15.73-10.81a28.79,28.79,0,0,0,.87-16.36C268.13,23.08,263.32,19,254.74,18.19Z"/><path class="cls-1" d="M298.28,44.11c-2.55.46-5.13.56-7.69.87-2.27.28-4.56.49-6.61,1.64-2.73,1.55-3.61,4-3.37,7a6.13,6.13,0,0,0,4.45,5.72,14,14,0,0,0,5.05.62,11.16,11.16,0,0,0,11-9.19c.53-2.56.17-5.14.31-8.05A7.13,7.13,0,0,1,298.28,44.11Z"/><path class="cls-1" d="M222.07,44.81a13.26,13.26,0,0,1-5.56,1.45,20.8,20.8,0,0,0-6.65,1.49,4.61,4.61,0,0,0-2.66,4.67c.17,2,1.58,2.94,3.26,3.5a10.41,10.41,0,0,0,6.86,0c2.69-1,5-2.74,4.76-6.59C222,47.88,222.07,46.46,222.07,44.81Z"/><path class="cls-1" d="M349.94,42.72a7.26,7.26,0,0,1-3.07,1.37c-2.58.48-5.21.58-7.81.9-2.27.27-4.56.48-6.6,1.65-2.68,1.52-3.57,3.93-3.35,6.86a6.12,6.12,0,0,0,4.36,5.78,13.94,13.94,0,0,0,5.17.65,11.16,11.16,0,0,0,11-9.22C350.18,48.15,349.84,45.57,349.94,42.72Z"/><path class="cls-2" d="M114.5,16.15c-.23-.6-.58-.69-1.13-.68-2.16,0-4.33.08-6.49,0a1.53,1.53,0,0,0-1.76,1.22Q99.38,31.82,93.56,46.92L88.08,61.23c2.66,0,5.12,0,7.58,0,.72,0,.89-.34,1.08-.89,1.21-3.49,2.45-7,3.63-10.48a1.15,1.15,0,0,1,1.32-.92c5.37,0,10.74,0,16.11,0a1.23,1.23,0,0,1,1.42,1c1.15,3.47,2.38,6.91,3.6,10.35.16.43.15,1,.9,1,2.65,0,5.3,0,8,0a3.19,3.19,0,0,0-.1-.45Q123.06,38.47,114.5,16.15ZM102.9,43l6.81-19.38.26,0c2.25,6.44,4.49,12.88,6.76,19.4Z"/><path class="cls-2" d="M231.87,56.43c-1.86.15-2.3-.27-2.48-2.09a10.66,10.66,0,0,1,0-1.13V37.47c0-4.7-2-7.7-6.51-9.2a22.25,22.25,0,0,0-14.35.07,10.26,10.26,0,0,0-7.37,8.75c-.12.79-.09,1.21.93,1.16,1.83-.08,3.66,0,5.49,0,.58,0,.9-.08,1-.75A4.84,4.84,0,0,1,212,33.61a11.62,11.62,0,0,1,7-.18c2.3.6,3.52,2.12,3.49,4.12s-1.12,3.19-3.67,3.69c-3.63.69-7.34.93-11,1.73-3.37.75-6.29,2.27-7.45,5.73-1.73,5.18-.29,11.22,6.77,13a17.48,17.48,0,0,0,15.38-3.22c1.09,2.81,2.47,3.72,5.43,3.76a14.83,14.83,0,0,0,3-.29c1.95-.39,1.95-.39,1.95-2.35,0-.7,0-1.42,0-2.12C233.05,56.61,232.77,56.36,231.87,56.43Zm-14.55-.55a10.41,10.41,0,0,1-6.86,0c-1.68-.56-3.09-1.5-3.26-3.5a4.61,4.61,0,0,1,2.66-4.67,20.8,20.8,0,0,1,6.65-1.49,13.26,13.26,0,0,0,5.56-1.45c0,1.65-.06,3.07,0,4.48C222.28,53.14,220,54.93,217.32,55.88Z"/><path class="cls-2" d="M151.6,27.33c-5.89-.72-10.88,1.19-14.48,6-3.43,4.61-4.17,9.89-3.27,15.43.92,5.72,3.71,10.23,9.33,12.28C149,63.2,154.75,62.81,159.87,59a12.6,12.6,0,0,0,4.85-8c-2.15,0-4.19,0-6.23,0-.66,0-.84.33-1.05.82a7.3,7.3,0,0,1-6.67,4.64c-3.28.24-6.11-.66-8.07-3.48a10,10,0,0,1-1.63-4.27c-.32-2.19-.31-2.19,1.86-2.19,7.08,0,14.16,0,21.25,0,.86,0,1.13-.24,1.16-1.1a19.2,19.2,0,0,0-1.3-8.19C161.72,31.63,157.67,28.07,151.6,27.33ZM157,41.73h-7.62c-2.54,0-5.08,0-7.62,0-.74,0-.88-.18-.77-.91.9-6.49,7.57-9.94,12.8-6.6,2.51,1.6,3.59,4.05,4.05,6.86C157.93,41.9,157.38,41.72,157,41.73Z"/><path class="cls-2" d="M13.61,32h2.25l1.83,0,.28-.9q.55-1.74,1.08-3.48a1.43,1.43,0,0,1,.06-.21l0-.07.05-.12-.06,0-.25-.12-.1-.06-.31-.22c-2.38-1.76-4.75-3.51-6.91-5.08L8,19.09l-.61-.43-.18-.12c-.15-.1-.29-.19-.44-.27l-.22-.12a3.36,3.36,0,0,0-.43-.2l-.21-.08-.1,0a57.47,57.47,0,0,1-5.49,13c-.3.52-.29.68-.29.7H0a1.27,1.27,0,0,0,.39.21l.79.06.65,0,.76,0,.82,0,.73,0,1,0,1.83,0c1.5,0,3,0,4.46,0Z"/><path class="cls-2" d="M20.93,26.7l.07,0,.17.12,5.33,3.9L28.15,32l.11,0h6.23l.24-.77L37.06,24c.67-2.06,1.33-4.13,2-6.19a3.58,3.58,0,0,0,.09-.35l-14,0H23.89c-.22.65-.44,1.29-.65,1.94l-.68,2c-.5,1.48-1,3-1.46,4.46,0,.1-.07.22-.12.35l0,.07a2,2,0,0,1-.16.33Z"/><path class="cls-2" d="M26.33,52.41,26,52.2l-.64-.46-.25-.18L24.44,51l-.16-.12-.36-.28c-.43-.33-.85-.65-1.29-1-1.95-1.36-3.88-2.74-5.81-4.13l-1.77-1.27L7.11,68.8l1.2-.06c1.76-.08,3.42-.16,5.07-.35a4,4,0,0,1,.59,0,3.71,3.71,0,0,1,2.84,1.32C18,70.84,19.17,72,20.35,73.11l.64.61,6.65-20.51c-.12-.06-.22-.13-.34-.2l-.37-.21Z"/><path class="cls-2" d="M253.44,15.48c-5,0-10,0-15,0-.95,0-1.16.24-1.16,1.16.05,7.25,0,14.5,0,21.75s0,14.5,0,21.74c0,.95.24,1.16,1.17,1.15,5,0,10.08,0,15.12,0,9-.06,16.26-5.47,18.69-13.94a35.2,35.2,0,0,0,.8-14.59C271.63,22,264.24,15.49,253.44,15.48Zm15.61,32.38c-2.55,6.74-8.27,10.64-15.73,10.81-4,.09-8.08,0-12.12.08-.85,0-1-.28-1-1.06,0-6.46,0-12.91,0-19.37V19.08c0-.56-.16-1.15.81-1.12,4.58.13,9.16-.2,13.73.23,8.58.79,13.39,4.89,15.18,13.31A28.79,28.79,0,0,1,269.05,47.86Z"/><path class="cls-2" d="M178.19,24.23c0-2.62,0-5.24,0-7.87,0-.72-.21-.91-.92-.9-1.79,0-3.58.09-5.36,0-1,0-1.14.31-1.13,1.19,0,7.2,0,14.4,0,21.6s0,14.65,0,22c0,.81.2,1.06,1,1a48.57,48.57,0,0,1,5.12,0c1.08.06,1.28-.31,1.27-1.32Q178.17,42.09,178.19,24.23Z"/><path class="cls-2" d="M192.55,15.46a48.57,48.57,0,0,1-5.12,0c-1,0-1.13.3-1.13,1.18,0,9.87,0,19.73,0,29.6,0,4.66,0,9.32,0,14,0,.8.19,1.06,1,1,1.75-.07,3.5-.09,5.24,0,1,0,1.15-.28,1.15-1.18,0-7.24,0-14.48,0-21.73s0-14.48,0-21.72C193.72,15.67,193.48,15.41,192.55,15.46Z"/><path class="cls-2" d="M41.92,44.17l.33-.28-.07-.09C39.39,42,36.65,40,34,37.91L29.66,51.48l-.36,1.11-.08.22a5.58,5.58,0,0,1,.71.43l4.81,3.49,6.59,4.79Q45.16,64.28,49,67l1,.7q-.06-.15-.12-.33-3.51-10.92-7.09-21.82v0a3,3,0,0,1-.15-.7c0-.1,0-.2,0-.3v-.07Z"/><path class="cls-2" d="M44.3,43.66c.13.07.26.13.38.21s.4.25.6.38l.33.21c.21.14.41.29.62.45l.26.19.85.64c.46.36.92.72,1.4,1,2.79,2,5.6,4.05,8.32,6.05,2,1.5,4.09,3,6.15,4.48a4.63,4.63,0,0,1,.47.39q-3-9.26-6-18.52l-1.87-5.76-15.44,0,3,9.39.43.51Z"/><path class="cls-2" d="M43.77,43.38h0l-.43-.51h0Z"/><path class="cls-2" d="M59.43,32c3.07,0,6.14,0,9.21,0h0a.87.87,0,0,0,.91-.43c1.19-1.8,2.76-4.17,4.42-6.51.24-.34.24-.42,0-.78-1.69-2.41-3-4.38-4.21-6.21h0a1.13,1.13,0,0,0-1.2-.6q-6.61,0-13.25,0H52.08l4.43,13.59c.05.14.1.28.14.42a.56.56,0,0,1,0,.12,3.59,3.59,0,0,1,.08.35.24.24,0,0,1,0,.08Z"/><path class="cls-2" d="M39.71,16c.13-.44.26-.89.4-1.34s.2-.69.31-1L40.9,12l.33-1,.51-1.56.33-1c.28-.83.55-1.66.83-2.48l.85-2.54c.17-.51.3-1,.42-1.5,0-.11,0-.21.07-.32.1-.48.18-.95.23-1.41a.13.13,0,0,0,0-.06A62.28,62.28,0,0,1,29.42,0a.76.76,0,0,0,0,.11l0,.15Q27.21,6.8,25.1,13.33L24.24,16h.86Z"/><path class="cls-2" d="M25.1,16h0Z"/><path class="cls-2" d="M307,59.1c-2.12.27-2.82-.27-3-2.39,0-.45-.05-.91-.05-1.37,0-6.37,0-12.74,0-19.11,0-4.34-2.31-7.23-6.51-8.27a21.9,21.9,0,0,0-6.94-.43q-9.44.7-10.59,9.73c-.05.39-.54,1.27.44,1.17.69-.07,1.86.81,2-.84.44-3.9,2.5-6.54,6.35-7.6a14.45,14.45,0,0,1,8,.1c2.08.61,4,1.78,4.41,4,1,5.18.12,7.62-5.12,8.2-3.34.37-6.72.47-10,1.17-4.43.95-7.24,3.62-7.87,7.61-.7,4.41.95,8.22,4.6,9.7a14.56,14.56,0,0,0,18.69-5.46c0,.6,0,1.21,0,1.81.23,3.28,2.63,5,5.81,4.05,1.09-.31.52-1.17.57-1.78S307.32,59.06,307,59.1Zm-5.87-8.36a11.16,11.16,0,0,1-11,9.19,14,14,0,0,1-5.05-.62,6.13,6.13,0,0,1-4.45-5.72c-.24-3,.64-5.42,3.37-7,2-1.15,4.34-1.36,6.61-1.64,2.56-.31,5.14-.41,7.69-.87a7.13,7.13,0,0,0,3.18-1.42C301.32,45.6,301.68,48.18,301.15,50.74Z"/><path class="cls-2" d="M356.33,59.4c0-.74-.59-.31-.92-.27-1.93.25-2.69-.33-2.89-2.29,0-.5-.06-1-.06-1.49,0-6.33,0-12.66,0-19,0-4.51-2.27-7.36-6.62-8.42a21.81,21.81,0,0,0-6.83-.41q-9.42.69-10.59,9.73c-.05.39-.54,1.27.43,1.17.69-.07,1.87.83,2.06-.84.47-4.07,2.67-6.71,6.7-7.69a14.5,14.5,0,0,1,7.65.19c2.09.61,4,1.77,4.41,4,1,5.18.13,7.62-5.1,8.2-3.35.37-6.72.47-10,1.17-4.43.95-7.24,3.61-7.87,7.6-.75,4.72,1.22,8.58,5.27,10a16.17,16.17,0,0,0,11.12,0,13.31,13.31,0,0,0,6.9-5.76c0,.6,0,1.2,0,1.8.23,3.29,2.62,5,5.81,4.06C356.85,60.86,356.31,60,356.33,59.4Zm-6.68-8.69a11.16,11.16,0,0,1-11,9.22,13.94,13.94,0,0,1-5.17-.65,6.12,6.12,0,0,1-4.36-5.78c-.22-2.93.67-5.34,3.35-6.86,2-1.17,4.33-1.38,6.6-1.65,2.6-.32,5.23-.42,7.81-.9a7.26,7.26,0,0,0,3.07-1.37C349.84,45.57,350.18,48.15,349.65,50.71Z"/><path class="cls-2" d="M64.35,60.37a5.26,5.26,0,0,1-.58-.45l-.14-.13-.45-.46a6.18,6.18,0,0,0-.85-.79q-3.09-2.24-6.16-4.49c-2.71-2-5.52-4-8.3-6-.49-.35-1-.72-1.45-1.09l-.94-.72L45.2,46c-.24-.17-.48-.34-.72-.49l-.19-.13q3.52,10.77,7,21.54a4.85,4.85,0,0,0,.5,1c.08.12.15.26.23.39l.06.12c.06.1.11.21.16.31s0,.12.07.17a2.85,2.85,0,0,1,.12.31,1.17,1.17,0,0,1,0,.2s0,.09,0,.14l.18.17v0a62.44,62.44,0,0,1,11.81-9l0-.07a1.34,1.34,0,0,1-.07-.18l0-.09Z"/><path class="cls-2" d="M52.31,68.91s0-.11-.07-.17S52.29,68.86,52.31,68.91Z"/><path class="cls-2" d="M52.08,68.43,52,68.31Z"/><path class="cls-2" d="M52.48,69.42a1.17,1.17,0,0,0,0-.2A1.17,1.17,0,0,1,52.48,69.42Z"/><path class="cls-2" d="M63.77,59.92a5.26,5.26,0,0,0,.58.45A5.26,5.26,0,0,1,63.77,59.92Z"/><path class="cls-2" d="M45.2,46l.28.2Z"/><path class="cls-2" d="M44.29,45.38h0l.19.13Z"/><path class="cls-2" d="M63.63,59.79c-.16-.15-.31-.31-.45-.46Z"/><path class="cls-2" d="M317.45,30.22c1.83,0,3.67,0,5.5,0,.79,0,.87-.33.85-1s.06-1.12-.87-1.08c-1.79.08-3.58,0-5.37,0-.79,0-1-.23-1-1,0-2.75-.05-5.5,0-8.25,0-1.12-.52-1.06-1.27-1s-1.35-.13-1.3,1c.09,2.7,0,5.41.05,8.12,0,1-.28,1.19-1.18,1.14-1.37-.08-2.75,0-4.12,0-.91-.06-.76.49-.76,1s-.15,1.07.76,1c1.37-.08,2.75,0,4.12,0,.9-.05,1.2.16,1.18,1.14-.06,3.87,0,7.74,0,11.61s-.09,8,0,12c.09,3.45,2,5.63,5.22,6.18,1,.18,2.08,0,3.11.12s1.32-.32,1.27-1.32-.87-.68-1.36-.68c-4.06-.07-5.7-1.41-5.74-5.09-.06-7.7,0-15.4,0-23.1C316.6,30.39,316.81,30.2,317.45,30.22Z"/><path class="cls-2" d="M50,15.93l-.93-2.85.18.22,0-.06q-1.6-5-3.25-10c-.12-.36-.22-.73-.32-1.1a1.05,1.05,0,0,0,0,.19c-.13.5-.26,1-.44,1.53l-.85,2.55C43.86,7.8,43.4,9.19,43,10.58c-.08.22-.15.45-.22.67-.45,1.37-.87,2.75-1.28,4.13l-.15.5,7.91,0Z"/><polygon class="cls-2" points="50 15.93 50.1 15.93 49.25 13.3 49.07 13.08 50 15.93"/><path class="cls-2" d="M45.17,3.88c.18-.52.31-1,.44-1.53C45.48,2.85,45.35,3.36,45.17,3.88Z"/><path class="cls-2" d="M41.29,15.88h0l.15-.5C41.4,15.55,41.34,15.72,41.29,15.88Z"/><path class="cls-2" d="M42.73,11.25c.07-.22.14-.45.22-.67C42.87,10.8,42.8,11,42.73,11.25Z"/><path class="cls-2" d="M8,17.25l0,0c.28.18.54.37.79.55,3,2.14,6.78,4.91,10.58,7.74l.21.14a3,3,0,0,0,.1-.29c.47-1.5,1-3,1.46-4.49l.69-2,.57-1.69H8Z"/><path class="cls-2" d="M19.36,25.57l.21.14-.21-.14Z"/><path class="cls-2" d="M22.39,17.23h0l-.57,1.69Z"/><path class="cls-2" d="M8.78,17.83c-.25-.18-.51-.37-.79-.55C8.27,17.46,8.53,17.65,8.78,17.83Z"/><path class="cls-2" d="M17.07,33.47H13.63l-2.23,0-3.7,0H6.92l-1.72,0H4.94l-1.51,0H3.15l-.42,0,.11.08c1.66,1.22,3.31,2.43,5,3.67.83.62,1.68,1.22,2.52,1.82,1.35,1,2.74,1.94,4,3l2.39-7.52Z"/><path class="cls-2" d="M3.43,33.44h0Z"/><path class="cls-2" d="M11.4,33.49c-1.5,0-3,0-4.48,0H7.7Z"/><path class="cls-2" d="M5.2,33.49Z"/><path class="cls-2" d="M15.85,33.46h0Z"/><polygon class="cls-2" points="6.92 32.76 6.92 32.76 6.92 32.76 6.92 32.76"/><path class="cls-2" d="M32,36.51c-1-.78-2.11-1.56-3.18-2.33l-.18-.12-.31-.22-.09-.08a2.17,2.17,0,0,1-.27-.26s0,0-.05,0H18.65l-3,9.45,2,1.46c1.93,1.38,3.85,2.77,5.79,4.12q.69.48,1.35,1h0l.37.28.07.05,1.11.84.3.21a14.39,14.39,0,0,0,1.26.83l.07,0c.08-.22.15-.45.23-.67l4.48-14Z"/><path class="cls-2" d="M27.94,51.66l.07,0h0Z"/><polygon class="cls-2" points="15.66 42.88 17.69 44.34 15.66 42.88 15.66 42.88"/><path class="cls-2" d="M26.68,50.83l-.3-.21Z"/><path class="cls-2" d="M24.83,49.45h0l.36.28.08.05-.07-.05Z"/><path class="cls-2" d="M28,51.69c.08-.22.15-.45.23-.67-.08.22-.15.45-.23.67Z"/><polygon class="cls-2" points="28.24 51.02 32.72 37.06 32.72 37.06 28.24 51.02"/><polygon class="cls-2" points="28.01 51.7 28.01 51.7 28.01 51.69 28.01 51.69 28.01 51.7"/><polygon class="cls-2" points="18.65 33.43 18.65 33.43 15.66 42.88 15.66 42.88 18.65 33.43"/><polygon class="cls-2" points="15.66 42.88 15.66 42.88 15.66 42.88 15.66 42.88 15.66 42.88"/><path class="cls-2" d="M55,31.13,50.49,17.44l-9.8-.06a8.7,8.7,0,0,1-.22.88q-1,3.1-2,6.2l-.57,1.8c.14.39.28.78.43,1.16l.36,1,.33.93c0,.09.06.17.08.25.08.24.16.48.23.72l.09.35c.06.22.11.44.16.66l.09.4c0,.1,0,.19.06.29l15.47-.05c0-.12-.07-.23-.12-.36L55,31.23l0-.07Z"/><polygon class="cls-2" points="39.75 31.98 39.75 31.99 55.22 31.93 55.22 31.93 39.75 31.98"/><path class="cls-2" d="M55.22,31.93a2.53,2.53,0,0,0-.12-.36c0,.13.08.24.12.36Z"/><rect class="cls-2" x="55.22" y="31.93" width="0.01"/><rect class="cls-2" x="51.03" y="16.69"/><polygon class="cls-2" points="51.03 16.69 51.03 16.69 51.03 16.69 51.03 16.69 51.03 16.69"/><path class="cls-2" d="M40.3,16.63h0Z"/><rect class="cls-2" x="40.07" y="16.71"/><path class="cls-2" d="M19.27,31.93h6.29Q23,30.07,20.44,28.18c-.33,1.1-.68,2.2-1,3.3Z"/><path class="cls-2" d="M25.56,31.94Q23,30.07,20.44,28.18q2.55,1.89,5.12,3.76Z"/><path class="cls-2" d="M33.89,33.85,34,33.5H30.41l2.45,1.8.49.36.59-1.82Z"/><polygon class="cls-2" points="33.35 35.66 33.35 35.66 32.86 35.3 33.35 35.66"/><path class="cls-2" d="M33.6,36.77h0Z"/><path class="cls-2" d="M36.18,31.65h0l-.11.34,2.1,0s0-.05,0-.07c-.1-.48-.22-.94-.35-1.39,0-.1-.07-.21-.1-.31-.14-.43-.29-.86-.44-1.27v0l-.12-.29v-.05Z"/><path class="cls-2" d="M38.22,32a.19.19,0,0,1,0-.07s0,.05,0,.07Z"/><path class="cls-2" d="M37.75,30.19c0,.1.06.21.1.31C37.81,30.4,37.78,30.29,37.75,30.19Z"/><path class="cls-2" d="M37.31,28.92v0l-.12-.29.12.29Z"/><polygon class="cls-2" points="36.18 31.65 36.07 31.98 36.11 31.98 36.22 31.64 36.18 31.65"/></g></g></svg>