<svg xmlns="http://www.w3.org/2000/svg" width="357.2" height="75.84" viewBox="0 0 357.2 75.84"><defs><style>.cls-1{fill:#343434;}.cls-2{fill:#68d7e5;}.cls-3{fill:#026165;}.cls-4{fill:#373737;}.cls-5{fill:#333;}.cls-6{fill:#27c5d9;}.cls-7{fill:#01acc0;}.cls-8{fill:#dff6f9;}.cls-9{fill:#018592;}.cls-10{fill:#01bbd3;}.cls-11{fill:#04acc1;}.cls-12{fill:#b1eaf1;}.cls-13{fill:#4ecfe0;}.cls-14{fill:#00838e;}</style></defs><title>Asset 1</title><g id="Layer_2" data-name="Layer 2"><g id="Layer_1-2" data-name="Layer 1"><path class="cls-1" d="M88.83,62l5.48-14.31q5.79-15.12,11.56-30.25a1.53,1.53,0,0,1,1.76-1.22c2.16.1,4.33,0,6.49,0,.55,0,.9.08,1.13.67q8.53,22.34,17.12,44.64c0,.11,0,.24.1.45-2.7,0-5.35,0-8,0-.75,0-.75-.52-.9-1-1.22-3.44-2.45-6.88-3.6-10.35a1.23,1.23,0,0,0-1.42-1q-8.05,0-16.11,0a1.15,1.15,0,0,0-1.32.92c-1.18,3.51-2.42,7-3.63,10.48-.19.54-.36.91-1.08.89C94,62,91.49,62,88.83,62Zm21.89-37.68-.26,0-6.81,19.38h13.83C115.21,37.19,113,30.75,110.72,24.31Z"/><path class="cls-1" d="M223.34,59.24A17.48,17.48,0,0,1,208,62.46c-7.06-1.78-8.5-7.82-6.77-13,1.16-3.46,4.08-5,7.45-5.73,3.62-.8,7.33-1,11-1.73,2.55-.5,3.65-1.66,3.67-3.69s-1.19-3.52-3.49-4.12a11.62,11.62,0,0,0-7,.18,4.84,4.84,0,0,0-3.47,3.88c-.11.67-.43.76-1,.75-1.83,0-3.66-.07-5.49,0-1,.05-1.05-.37-.93-1.16a10.26,10.26,0,0,1,7.37-8.75A22.25,22.25,0,0,1,223.6,29c4.47,1.5,6.51,4.5,6.51,9.2V54a10.66,10.66,0,0,0,0,1.13c.18,1.82.61,2.24,2.48,2.09.89-.08,1.18.18,1.09,1.05-.06.7,0,1.42,0,2.12,0,2,0,2-1.95,2.35a14.83,14.83,0,0,1-3,.29C225.81,63,224.43,62,223.34,59.24Zm-.52-13.67A13.26,13.26,0,0,1,217.26,47a20.8,20.8,0,0,0-6.65,1.49A4.61,4.61,0,0,0,208,53.18c.17,2,1.58,2.94,3.26,3.5a10.41,10.41,0,0,0,6.86,0c2.69-1,5-2.74,4.76-6.59C222.76,48.64,222.82,47.22,222.82,45.57Z"/><path class="cls-1" d="M165.47,51.74a12.6,12.6,0,0,1-4.85,8c-5.12,3.86-10.85,4.25-16.69,2.12-5.62-2-8.41-6.56-9.33-12.28-.9-5.54-.16-10.82,3.27-15.43,3.6-4.84,8.59-6.75,14.47-6,6.08.74,10.13,4.3,12.45,9.88a19.2,19.2,0,0,1,1.3,8.19c0,.86-.3,1.1-1.16,1.1-7.09,0-14.17,0-21.25,0-2.17,0-2.18,0-1.86,2.19a9.82,9.82,0,0,0,1.63,4.27c2,2.82,4.79,3.72,8.07,3.48a7.32,7.32,0,0,0,6.67-4.64c.21-.49.39-.84,1.05-.82C161.27,51.77,163.31,51.74,165.47,51.74Zm-15.38-9.25h7.62c.42,0,1,.18.84-.63C158.09,39,157,36.59,154.5,35c-5.23-3.34-11.9.11-12.8,6.6-.11.72,0,.92.77.91C145,42.46,147.55,42.49,150.09,42.49Z"/><path class="cls-2" d="M1,33.26c-1.12-.41-1.21-.95-.58-2A56.64,56.64,0,0,0,5.84,18.3a3.46,3.46,0,0,1,.23-.56,6.55,6.55,0,0,1,3.08,1.5q5.28,3.81,10.51,7.69c.88.65,1.16.48,1.48-.52.93-3,2-6,3-8.94l1.75,0,15,0c-.1.44-.18.89-.31,1.32-.87,2.75-1.76,5.5-2.64,8.25l-2.09,6.47h-6.7l-.47-.06Q25,30.84,21.48,28.22c-.53-.38-.78-.28-1,.35-.47,1.63-1,3.25-1.51,4.87l-.16.05C12.88,33.37,6.92,33.76,1,33.26Z"/><path class="cls-3" d="M29.17,54q-3.54,11-7.08,21.86c-1.71-1.64-3.45-3.21-5.07-4.9a3,3,0,0,0-2.8-1c-2.39.28-4.8.32-7.41.48L15.36,44a.47.47,0,0,0,.17,0c2.76,2,5.49,4,8.28,5.9a38,38,0,0,0,5.38,3.7Z"/><path class="cls-4" d="M238.07,39.12c0-7.25,0-14.5,0-21.75,0-.92.21-1.17,1.16-1.16,5,.05,10,0,15,0,10.8,0,18.19,6.5,19.63,17.21A35.2,35.2,0,0,1,273,48c-2.43,8.47-9.67,13.88-18.69,13.94-5,0-10.08,0-15.12,0-.93,0-1.17-.2-1.17-1.15C238.09,53.62,238.07,46.37,238.07,39.12Zm2.88,0c0,6.46,0,12.91,0,19.37,0,.78.16,1.07,1,1.06,4-.06,8.08,0,12.12-.08,7.46-.17,13.18-4.07,15.73-10.81a28.79,28.79,0,0,0,.87-16.36c-1.79-8.42-6.6-12.52-15.18-13.31-4.57-.43-9.15-.1-13.73-.23-1,0-.81.56-.81,1.12Z"/><path class="cls-5" d="M171.57,39c0-7.2,0-14.4,0-21.6,0-.88.13-1.24,1.13-1.19,1.78.1,3.57.06,5.36,0,.7,0,.93.18.91.9,0,2.62,0,5.25,0,7.87q0,17.85,0,35.71c0,1-.19,1.38-1.27,1.31-1.7-.1-3.41-.07-5.12,0-.82,0-1-.22-1-1C171.58,53.65,171.57,46.33,171.57,39Z"/><path class="cls-5" d="M194.44,39.1c0,7.25,0,14.49,0,21.73,0,.9-.17,1.23-1.15,1.18-1.74-.09-3.49-.07-5.24,0-.83,0-1-.23-1-1,0-4.66,0-9.32,0-14,0-9.87,0-19.73,0-29.6,0-.88.14-1.23,1.13-1.18a48.57,48.57,0,0,0,5.12,0c.93,0,1.17.21,1.16,1.16C194.42,24.62,194.44,31.86,194.44,39.1Z"/><path class="cls-6" d="M29.17,54c0-.15,0-.3,0-.45.17-.51.35-1,.51-1.52l4.65-14.48h.18Q38.83,41,43.44,44l.39.49.23.25h0a4.74,4.74,0,0,0,.17,1.34Q47.8,57,51.32,67.92c.32,1,1.16,1.73,1.25,2.8q-5.46-3.91-10.93-7.83c-3.81-2.75-7.6-5.53-11.4-8.29C29.91,54.36,29.53,54.19,29.17,54Z"/><path class="cls-7" d="M43.83,44.49,43.44,44q-1.66-5.25-3.34-10.51l16.73-.05.32.1q4.16,12.81,8.29,25.61c.17.52.28,1,.42,1.56-1-.46-1.5-1.41-2.34-2-4.84-3.49-9.61-7.07-14.47-10.52a31.49,31.49,0,0,0-5-3.42h0Z"/><path class="cls-8" d="M57.15,33.54l-.32-.1a4.26,4.26,0,0,0-.39-1.69q-2.32-7.16-4.66-14.3l0,0c5.83,0,11.66,0,17.49,0a1.88,1.88,0,0,1,1.83.94c1.35,2.09,2.76,4.15,4.19,6.18a1.22,1.22,0,0,1,0,1.65c-1.51,2.14-3,4.31-4.4,6.49a1.6,1.6,0,0,1-1.55.77C65.31,33.49,61.23,33.53,57.15,33.54Z"/><path class="cls-9" d="M40.82,17.47l-15,0-1.75,0a.51.51,0,0,0-.07-.23L29.37.79c.14-.41.19-.88.88-.78a64.75,64.75,0,0,0,15.8,0,15.74,15.74,0,0,1-.84,4.35c-1.43,4.32-2.92,8.61-4.16,13Z"/><path class="cls-4" d="M302.2,56.07a14.56,14.56,0,0,1-18.69,5.46c-3.65-1.48-5.3-5.29-4.6-9.7.63-4,3.44-6.66,7.86-7.61,3.31-.7,6.69-.8,10-1.17,5.24-.58,6.14-3,5.12-8.2-.44-2.22-2.33-3.39-4.41-4a14.45,14.45,0,0,0-8-.1c-3.85,1.06-5.91,3.7-6.35,7.6-.19,1.65-1.36.77-2.06.84-1,.1-.48-.78-.43-1.17q1.17-9,10.58-9.73a22,22,0,0,1,6.95.43c4.2,1,6.5,3.93,6.51,8.27,0,6.37,0,12.74,0,19.11,0,.46,0,.92.05,1.37.19,2.12.89,2.66,3,2.38.3,0,.87-.37.81.3s.52,1.47-.57,1.78c-3.18.9-5.58-.77-5.81-4C302.16,57.28,302.2,56.67,302.2,56.07Zm0-12.62A7.13,7.13,0,0,1,299,44.87c-2.55.46-5.13.56-7.69.87-2.27.28-4.56.49-6.61,1.64-2.73,1.55-3.61,4-3.37,7a6.13,6.13,0,0,0,4.45,5.72,14.14,14.14,0,0,0,5.05.62,11.17,11.17,0,0,0,11-9.19C302.43,48.94,302.07,46.36,302.21,43.45Z"/><path class="cls-4" d="M350.69,56.07a13.25,13.25,0,0,1-6.89,5.76,16.17,16.17,0,0,1-11.12,0c-4.05-1.45-6-5.31-5.27-10,.63-4,3.44-6.65,7.87-7.6,3.31-.7,6.68-.8,10-1.17,5.23-.58,6.13-3,5.1-8.2-.44-2.23-2.32-3.39-4.41-4a14.5,14.5,0,0,0-7.65-.19c-4,1-6.23,3.62-6.7,7.69-.19,1.67-1.37.77-2.06.84-1,.1-.48-.78-.43-1.17.79-6,4.3-9.27,10.59-9.73a21.81,21.81,0,0,1,6.83.41c4.35,1.06,6.62,3.91,6.62,8.42,0,6.33,0,12.66,0,19,0,.49,0,1,.06,1.49.2,2,1,2.54,2.89,2.29.33,0,.93-.48.92.27s.52,1.46-.57,1.77c-3.19.89-5.58-.77-5.81-4.06C350.66,57.27,350.69,56.67,350.69,56.07Zm0-12.59a7.26,7.26,0,0,1-3.07,1.37c-2.58.48-5.21.58-7.81.89-2.27.28-4.56.49-6.6,1.66-2.68,1.52-3.57,3.93-3.35,6.86A6.12,6.12,0,0,0,334.22,60a14.15,14.15,0,0,0,5.17.65,11.16,11.16,0,0,0,11-9.22C350.93,48.91,350.59,46.33,350.69,43.48Z"/><path class="cls-10" d="M44.06,44.75a31.49,31.49,0,0,1,5,3.42c4.86,3.45,9.63,7,14.47,10.52.84.61,1.38,1.56,2.34,2h0a.53.53,0,0,0,.2.53c.37.44.1.62-.27.84a61.73,61.73,0,0,0-11.82,9c-.71.7-1-.11-1.38-.35-.09-1.07-.93-1.81-1.25-2.8Q47.81,57,44.23,46.09A4.74,4.74,0,0,1,44.06,44.75Z"/><path class="cls-4" d="M314.85,43.72c0-3.87,0-7.74,0-11.61,0-1-.28-1.19-1.18-1.14-1.37.08-2.75,0-4.12,0-.91,0-.76-.49-.76-1s-.15-1.08.76-1c1.37.07,2.75,0,4.12,0,.9,0,1.21-.17,1.18-1.14-.07-2.71,0-5.42-.05-8.12-.05-1.16.58-1,1.3-1s1.3-.08,1.26,1c-.09,2.75,0,5.5,0,8.25,0,.75.17,1,1,1,1.78-.06,3.58,0,5.37,0,.92,0,.84.47.86,1.08s-.05,1-.84,1c-1.83-.06-3.67,0-5.5,0-.64,0-.85.17-.85.83,0,7.71,0,15.41,0,23.11,0,3.67,1.68,5,5.74,5.09.49,0,1.29-.47,1.36.68s-.18,1.44-1.27,1.32-2.1.06-3.11-.12c-3.23-.55-5.13-2.73-5.22-6.18C314.77,51.72,314.85,47.72,314.85,43.72Z"/><path class="cls-11" d="M41.05,17.39c1.24-4.38,2.73-8.67,4.16-13A15.74,15.74,0,0,0,46.05.05a12.78,12.78,0,0,1,1.39,3.74c1.42,4.27,2.8,8.57,4.18,12.85a8.45,8.45,0,0,1,.19.84l0,0Z"/><path class="cls-12" d="M24,17.24a.51.51,0,0,1,.07.23c-1,3-2,5.94-3,8.94-.32,1-.6,1.17-1.48.52Q14.44,23,9.15,19.24a6.55,6.55,0,0,0-3.08-1.5c.17-.76.79-.47,1.23-.47Z"/><path class="cls-13" d="M15.53,43.93a.47.47,0,0,1-.17,0c-2.28-2-4.85-3.62-7.27-5.45S3.35,35,1,33.26c6,.5,11.91.11,17.87.23Q17.18,38.71,15.53,43.93Z"/><path class="cls-7" d="M66,61.23a.53.53,0,0,1-.2-.53A.49.49,0,0,1,66,61.23Z"/><path class="cls-14" d="M15.53,43.93q1.65-5.22,3.31-10.44l.16-.05h9.61l.47.06a2.29,2.29,0,0,0,.9.82c1.47,1.06,2.91,2.13,4.37,3.2L29.7,52c-.16.51-.34,1-.51,1.52a38,38,0,0,1-5.38-3.7C21,47.9,18.29,45.9,15.53,43.93Z"/><path class="cls-12" d="M41.05,17.39l10.73.06q2.34,7.15,4.66,14.3a4.26,4.26,0,0,1,.39,1.69l-16.73.05-.26,0a28.82,28.82,0,0,0-2-6.43c.88-2.75,1.77-5.5,2.64-8.25.13-.43.21-.88.31-1.32Z"/><path class="cls-10" d="M28.61,33.45H19c.51-1.62,1-3.24,1.51-4.87.19-.63.44-.73,1-.35Q25,30.85,28.61,33.45Z"/><path class="cls-3" d="M34.35,37.53c-1.46-1.07-2.9-2.14-4.37-3.2a2.29,2.29,0,0,1-.9-.82h6.75l-1.3,4Z"/><path class="cls-8" d="M37.87,27a28.82,28.82,0,0,1,2,6.43l-4,0h0C36.48,31.35,37.18,29.2,37.87,27Z"/><path class="cls-10" d="M43.83,44.49l.23.25Z"/></g></g></svg>